<mxfile host="Electron" agent="Mozilla/5.0 (Windows NT 10.0; Win64; x64) AppleWebKit/537.36 (KHTML, like Gecko) draw.io/24.7.8 Chrome/128.0.6613.36 Electron/32.0.1 Safari/537.36" version="24.7.8">
  <diagram name="Page-1" id="jR_ALRkq3Q8ah0i7VkS6">
    <mxGraphModel dx="2068" dy="-78" grid="1" gridSize="10" guides="1" tooltips="1" connect="1" arrows="1" fold="1" page="1" pageScale="1" pageWidth="850" pageHeight="1100" math="0" shadow="0">
      <root>
        <mxCell id="0" />
        <mxCell id="1" parent="0" />
        <mxCell id="XLQYAiqoUqziNo8lfi08-64" value="&lt;font style=&quot;font-size: 18px;&quot;&gt;Sell With Us&lt;/font&gt;" style="shape=umlLifeline;perimeter=lifelinePerimeter;whiteSpace=wrap;html=1;container=1;dropTarget=0;collapsible=0;recursiveResize=0;outlineConnect=0;portConstraint=eastwest;newEdgeStyle={&quot;curved&quot;:0,&quot;rounded&quot;:0};" parent="1" vertex="1">
          <mxGeometry x="160" y="1760" width="100" height="3440" as="geometry" />
        </mxCell>
        <mxCell id="XLQYAiqoUqziNo8lfi08-192" value="" style="html=1;points=[[0,0,0,0,5],[0,1,0,0,-5],[1,0,0,0,5],[1,1,0,0,-5]];perimeter=orthogonalPerimeter;outlineConnect=0;targetShapes=umlLifeline;portConstraint=eastwest;newEdgeStyle={&quot;curved&quot;:0,&quot;rounded&quot;:0};" parent="XLQYAiqoUqziNo8lfi08-64" vertex="1">
          <mxGeometry x="45" y="3120" width="10" height="100" as="geometry" />
        </mxCell>
        <mxCell id="8nZMs0LdViXXeDncEOVs-54" value="" style="shape=umlDestroy;whiteSpace=wrap;html=1;strokeWidth=3;targetShapes=umlLifeline;" parent="XLQYAiqoUqziNo8lfi08-64" vertex="1">
          <mxGeometry x="35" y="3360" width="30" height="30" as="geometry" />
        </mxCell>
        <mxCell id="XLQYAiqoUqziNo8lfi08-65" value="&lt;font style=&quot;font-size: 18px;&quot;&gt;Account&lt;/font&gt;" style="shape=umlLifeline;perimeter=lifelinePerimeter;whiteSpace=wrap;html=1;container=1;dropTarget=0;collapsible=0;recursiveResize=0;outlineConnect=0;portConstraint=eastwest;newEdgeStyle={&quot;curved&quot;:0,&quot;rounded&quot;:0};" parent="1" vertex="1">
          <mxGeometry x="320" y="1760" width="100" height="3440" as="geometry" />
        </mxCell>
        <mxCell id="XLQYAiqoUqziNo8lfi08-94" value="" style="html=1;points=[[0,0,0,0,5],[0,1,0,0,-5],[1,0,0,0,5],[1,1,0,0,-5]];perimeter=orthogonalPerimeter;outlineConnect=0;targetShapes=umlLifeline;portConstraint=eastwest;newEdgeStyle={&quot;curved&quot;:0,&quot;rounded&quot;:0};" parent="XLQYAiqoUqziNo8lfi08-65" vertex="1">
          <mxGeometry x="45" y="440" width="10" height="80" as="geometry" />
        </mxCell>
        <mxCell id="XLQYAiqoUqziNo8lfi08-197" value="" style="html=1;points=[[0,0,0,0,5],[0,1,0,0,-5],[1,0,0,0,5],[1,1,0,0,-5]];perimeter=orthogonalPerimeter;outlineConnect=0;targetShapes=umlLifeline;portConstraint=eastwest;newEdgeStyle={&quot;curved&quot;:0,&quot;rounded&quot;:0};" parent="XLQYAiqoUqziNo8lfi08-65" vertex="1">
          <mxGeometry x="45" y="3260" width="10" height="40" as="geometry" />
        </mxCell>
        <mxCell id="8nZMs0LdViXXeDncEOVs-55" value="" style="shape=umlDestroy;whiteSpace=wrap;html=1;strokeWidth=3;targetShapes=umlLifeline;" parent="XLQYAiqoUqziNo8lfi08-65" vertex="1">
          <mxGeometry x="35" y="3360" width="30" height="30" as="geometry" />
        </mxCell>
        <mxCell id="XLQYAiqoUqziNo8lfi08-66" value="&lt;font style=&quot;font-size: 18px;&quot;&gt;Product&lt;/font&gt;" style="shape=umlLifeline;perimeter=lifelinePerimeter;whiteSpace=wrap;html=1;container=1;dropTarget=0;collapsible=0;recursiveResize=0;outlineConnect=0;portConstraint=eastwest;newEdgeStyle={&quot;curved&quot;:0,&quot;rounded&quot;:0};" parent="1" vertex="1">
          <mxGeometry x="480" y="1760" width="100" height="3440" as="geometry" />
        </mxCell>
        <mxCell id="8nZMs0LdViXXeDncEOVs-56" value="" style="shape=umlDestroy;whiteSpace=wrap;html=1;strokeWidth=3;targetShapes=umlLifeline;" parent="XLQYAiqoUqziNo8lfi08-66" vertex="1">
          <mxGeometry x="35" y="3370" width="30" height="30" as="geometry" />
        </mxCell>
        <mxCell id="XLQYAiqoUqziNo8lfi08-67" value="&lt;font style=&quot;font-size: 18px;&quot;&gt;Cart&amp;nbsp;&lt;/font&gt;" style="shape=umlLifeline;perimeter=lifelinePerimeter;whiteSpace=wrap;html=1;container=1;dropTarget=0;collapsible=0;recursiveResize=0;outlineConnect=0;portConstraint=eastwest;newEdgeStyle={&quot;curved&quot;:0,&quot;rounded&quot;:0};" parent="1" vertex="1">
          <mxGeometry x="640" y="1760" width="100" height="3440" as="geometry" />
        </mxCell>
        <mxCell id="XLQYAiqoUqziNo8lfi08-109" value="" style="html=1;points=[[0,0,0,0,5],[0,1,0,0,-5],[1,0,0,0,5],[1,1,0,0,-5]];perimeter=orthogonalPerimeter;outlineConnect=0;targetShapes=umlLifeline;portConstraint=eastwest;newEdgeStyle={&quot;curved&quot;:0,&quot;rounded&quot;:0};" parent="XLQYAiqoUqziNo8lfi08-67" vertex="1">
          <mxGeometry x="45" y="680" width="10" height="80" as="geometry" />
        </mxCell>
        <mxCell id="8nZMs0LdViXXeDncEOVs-57" value="" style="shape=umlDestroy;whiteSpace=wrap;html=1;strokeWidth=3;targetShapes=umlLifeline;" parent="XLQYAiqoUqziNo8lfi08-67" vertex="1">
          <mxGeometry x="35" y="3370" width="30" height="30" as="geometry" />
        </mxCell>
        <mxCell id="XLQYAiqoUqziNo8lfi08-68" value="&lt;font style=&quot;font-size: 18px;&quot;&gt;Order&lt;/font&gt;" style="shape=umlLifeline;perimeter=lifelinePerimeter;whiteSpace=wrap;html=1;container=1;dropTarget=0;collapsible=0;recursiveResize=0;outlineConnect=0;portConstraint=eastwest;newEdgeStyle={&quot;curved&quot;:0,&quot;rounded&quot;:0};" parent="1" vertex="1">
          <mxGeometry x="800" y="1760" width="100" height="3430" as="geometry" />
        </mxCell>
        <mxCell id="8nZMs0LdViXXeDncEOVs-58" value="" style="shape=umlDestroy;whiteSpace=wrap;html=1;strokeWidth=3;targetShapes=umlLifeline;" parent="XLQYAiqoUqziNo8lfi08-68" vertex="1">
          <mxGeometry x="35" y="3370" width="30" height="30" as="geometry" />
        </mxCell>
        <mxCell id="XLQYAiqoUqziNo8lfi08-69" value="&lt;font style=&quot;font-size: 18px;&quot;&gt;Payment&amp;nbsp;&lt;/font&gt;" style="shape=umlLifeline;perimeter=lifelinePerimeter;whiteSpace=wrap;html=1;container=1;dropTarget=0;collapsible=0;recursiveResize=0;outlineConnect=0;portConstraint=eastwest;newEdgeStyle={&quot;curved&quot;:0,&quot;rounded&quot;:0};" parent="1" vertex="1">
          <mxGeometry x="960" y="1760" width="100" height="3430" as="geometry" />
        </mxCell>
        <mxCell id="8nZMs0LdViXXeDncEOVs-59" value="" style="shape=umlDestroy;whiteSpace=wrap;html=1;strokeWidth=3;targetShapes=umlLifeline;" parent="XLQYAiqoUqziNo8lfi08-69" vertex="1">
          <mxGeometry x="35" y="3370" width="30" height="30" as="geometry" />
        </mxCell>
        <mxCell id="XLQYAiqoUqziNo8lfi08-70" value="&lt;font style=&quot;font-size: 18px;&quot;&gt;Spin To Win&amp;nbsp;&lt;/font&gt;" style="shape=umlLifeline;perimeter=lifelinePerimeter;whiteSpace=wrap;html=1;container=1;dropTarget=0;collapsible=0;recursiveResize=0;outlineConnect=0;portConstraint=eastwest;newEdgeStyle={&quot;curved&quot;:0,&quot;rounded&quot;:0};" parent="1" vertex="1">
          <mxGeometry x="1120" y="1760" width="100" height="3440" as="geometry" />
        </mxCell>
        <mxCell id="XLQYAiqoUqziNo8lfi08-167" value="" style="html=1;points=[[0,0,0,0,5],[0,1,0,0,-5],[1,0,0,0,5],[1,1,0,0,-5]];perimeter=orthogonalPerimeter;outlineConnect=0;targetShapes=umlLifeline;portConstraint=eastwest;newEdgeStyle={&quot;curved&quot;:0,&quot;rounded&quot;:0};" parent="XLQYAiqoUqziNo8lfi08-70" vertex="1">
          <mxGeometry x="45" y="1910" width="10" height="40" as="geometry" />
        </mxCell>
        <mxCell id="XLQYAiqoUqziNo8lfi08-168" value="&lt;font style=&quot;font-size: 18px;&quot;&gt;add to account&lt;/font&gt;" style="html=1;align=left;spacingLeft=2;endArrow=block;rounded=0;edgeStyle=orthogonalEdgeStyle;curved=0;rounded=0;" parent="XLQYAiqoUqziNo8lfi08-70" target="XLQYAiqoUqziNo8lfi08-167" edge="1">
          <mxGeometry relative="1" as="geometry">
            <mxPoint x="50" y="1890" as="sourcePoint" />
            <Array as="points">
              <mxPoint x="80" y="1920" />
            </Array>
          </mxGeometry>
        </mxCell>
        <mxCell id="8nZMs0LdViXXeDncEOVs-60" value="" style="shape=umlDestroy;whiteSpace=wrap;html=1;strokeWidth=3;targetShapes=umlLifeline;" parent="XLQYAiqoUqziNo8lfi08-70" vertex="1">
          <mxGeometry x="35" y="3370" width="30" height="30" as="geometry" />
        </mxCell>
        <mxCell id="XLQYAiqoUqziNo8lfi08-71" value="&lt;font style=&quot;font-size: 18px;&quot;&gt;Reselling&amp;nbsp;&lt;/font&gt;" style="shape=umlLifeline;perimeter=lifelinePerimeter;whiteSpace=wrap;html=1;container=1;dropTarget=0;collapsible=0;recursiveResize=0;outlineConnect=0;portConstraint=eastwest;newEdgeStyle={&quot;curved&quot;:0,&quot;rounded&quot;:0};" parent="1" vertex="1">
          <mxGeometry x="1280" y="1760" width="100" height="3440" as="geometry" />
        </mxCell>
        <mxCell id="XLQYAiqoUqziNo8lfi08-175" value="" style="html=1;points=[[0,0,0,0,5],[0,1,0,0,-5],[1,0,0,0,5],[1,1,0,0,-5]];perimeter=orthogonalPerimeter;outlineConnect=0;targetShapes=umlLifeline;portConstraint=eastwest;newEdgeStyle={&quot;curved&quot;:0,&quot;rounded&quot;:0};" parent="XLQYAiqoUqziNo8lfi08-71" vertex="1">
          <mxGeometry x="45" y="2070" width="10" height="40" as="geometry" />
        </mxCell>
        <mxCell id="8nZMs0LdViXXeDncEOVs-61" value="" style="shape=umlDestroy;whiteSpace=wrap;html=1;strokeWidth=3;targetShapes=umlLifeline;" parent="XLQYAiqoUqziNo8lfi08-71" vertex="1">
          <mxGeometry x="35" y="3370" width="30" height="30" as="geometry" />
        </mxCell>
        <mxCell id="XLQYAiqoUqziNo8lfi08-72" value="&lt;font style=&quot;font-size: 18px;&quot;&gt;Database&lt;/font&gt;" style="shape=umlLifeline;perimeter=lifelinePerimeter;whiteSpace=wrap;html=1;container=1;dropTarget=0;collapsible=0;recursiveResize=0;outlineConnect=0;portConstraint=eastwest;newEdgeStyle={&quot;curved&quot;:0,&quot;rounded&quot;:0};" parent="1" vertex="1">
          <mxGeometry x="1600" y="1760" width="100" height="3440" as="geometry" />
        </mxCell>
        <mxCell id="XLQYAiqoUqziNo8lfi08-81" value="" style="html=1;points=[[0,0,0,0,5],[0,1,0,0,-5],[1,0,0,0,5],[1,1,0,0,-5]];perimeter=orthogonalPerimeter;outlineConnect=0;targetShapes=umlLifeline;portConstraint=eastwest;newEdgeStyle={&quot;curved&quot;:0,&quot;rounded&quot;:0};" parent="XLQYAiqoUqziNo8lfi08-72" vertex="1">
          <mxGeometry x="45" y="170" width="10" height="40" as="geometry" />
        </mxCell>
        <mxCell id="8nZMs0LdViXXeDncEOVs-63" value="" style="shape=umlDestroy;whiteSpace=wrap;html=1;strokeWidth=3;targetShapes=umlLifeline;" parent="XLQYAiqoUqziNo8lfi08-72" vertex="1">
          <mxGeometry x="35" y="3370" width="30" height="30" as="geometry" />
        </mxCell>
        <mxCell id="XLQYAiqoUqziNo8lfi08-73" value="" style="shape=umlLifeline;perimeter=lifelinePerimeter;whiteSpace=wrap;html=1;container=1;dropTarget=0;collapsible=0;recursiveResize=0;outlineConnect=0;portConstraint=eastwest;newEdgeStyle={&quot;curved&quot;:0,&quot;rounded&quot;:0};participant=umlActor;" parent="1" vertex="1">
          <mxGeometry x="80" y="1760" width="45" height="3440" as="geometry" />
        </mxCell>
        <mxCell id="XLQYAiqoUqziNo8lfi08-77" value="" style="html=1;points=[[0,0,0,0,5],[0,1,0,0,-5],[1,0,0,0,5],[1,1,0,0,-5]];perimeter=orthogonalPerimeter;outlineConnect=0;targetShapes=umlLifeline;portConstraint=eastwest;newEdgeStyle={&quot;curved&quot;:0,&quot;rounded&quot;:0};" parent="XLQYAiqoUqziNo8lfi08-73" vertex="1">
          <mxGeometry x="15" y="130" width="10" height="80" as="geometry" />
        </mxCell>
        <mxCell id="XLQYAiqoUqziNo8lfi08-120" value="" style="html=1;points=[[0,0,0,0,5],[0,1,0,0,-5],[1,0,0,0,5],[1,1,0,0,-5]];perimeter=orthogonalPerimeter;outlineConnect=0;targetShapes=umlLifeline;portConstraint=eastwest;newEdgeStyle={&quot;curved&quot;:0,&quot;rounded&quot;:0};" parent="XLQYAiqoUqziNo8lfi08-73" vertex="1">
          <mxGeometry x="15" y="920" width="10" height="80" as="geometry" />
        </mxCell>
        <mxCell id="XLQYAiqoUqziNo8lfi08-132" value="" style="html=1;points=[[0,0,0,0,5],[0,1,0,0,-5],[1,0,0,0,5],[1,1,0,0,-5]];perimeter=orthogonalPerimeter;outlineConnect=0;targetShapes=umlLifeline;portConstraint=eastwest;newEdgeStyle={&quot;curved&quot;:0,&quot;rounded&quot;:0};" parent="XLQYAiqoUqziNo8lfi08-73" vertex="1">
          <mxGeometry x="15" y="1160" width="10" height="40" as="geometry" />
        </mxCell>
        <mxCell id="XLQYAiqoUqziNo8lfi08-196" value="" style="html=1;points=[[0,0,0,0,5],[0,1,0,0,-5],[1,0,0,0,5],[1,1,0,0,-5]];perimeter=orthogonalPerimeter;outlineConnect=0;targetShapes=umlLifeline;portConstraint=eastwest;newEdgeStyle={&quot;curved&quot;:0,&quot;rounded&quot;:0};" parent="XLQYAiqoUqziNo8lfi08-73" vertex="1">
          <mxGeometry x="15" y="3260" width="10" height="40" as="geometry" />
        </mxCell>
        <mxCell id="8nZMs0LdViXXeDncEOVs-53" value="" style="shape=umlDestroy;whiteSpace=wrap;html=1;strokeWidth=3;targetShapes=umlLifeline;" parent="XLQYAiqoUqziNo8lfi08-73" vertex="1">
          <mxGeometry x="15" y="3360" width="30" height="30" as="geometry" />
        </mxCell>
        <mxCell id="XLQYAiqoUqziNo8lfi08-74" value="&lt;font style=&quot;font-size: 18px;&quot;&gt;Customer&lt;/font&gt;" style="text;align=center;fontStyle=1;verticalAlign=middle;spacingLeft=3;spacingRight=3;strokeColor=none;rotatable=0;points=[[0,0.5],[1,0.5]];portConstraint=eastwest;html=1;" parent="1" vertex="1">
          <mxGeometry x="60" y="1800" width="80" height="26" as="geometry" />
        </mxCell>
        <mxCell id="XLQYAiqoUqziNo8lfi08-75" value="&lt;font style=&quot;font-size: 18px;&quot;&gt;alt&lt;/font&gt;" style="shape=umlFrame;whiteSpace=wrap;html=1;pointerEvents=0;" parent="1" vertex="1">
          <mxGeometry x="10" y="1830" width="1840" height="3270" as="geometry" />
        </mxCell>
        <mxCell id="XLQYAiqoUqziNo8lfi08-76" value="&lt;font style=&quot;font-size: 18px;&quot;&gt;[ if user not exist ]&amp;nbsp;&lt;/font&gt;" style="text;align=center;fontStyle=1;verticalAlign=middle;spacingLeft=3;spacingRight=3;strokeColor=none;rotatable=0;points=[[0,0.5],[1,0.5]];portConstraint=eastwest;html=1;" parent="1" vertex="1">
          <mxGeometry x="120" y="1840" width="80" height="26" as="geometry" />
        </mxCell>
        <mxCell id="XLQYAiqoUqziNo8lfi08-80" value="&lt;font style=&quot;font-size: 18px;&quot;&gt;Register&lt;/font&gt;" style="html=1;verticalAlign=bottom;endArrow=block;curved=0;rounded=0;" parent="1" edge="1">
          <mxGeometry width="80" relative="1" as="geometry">
            <mxPoint x="100.5" y="1890" as="sourcePoint" />
            <mxPoint x="364.5" y="1890" as="targetPoint" />
          </mxGeometry>
        </mxCell>
        <mxCell id="XLQYAiqoUqziNo8lfi08-82" value="&lt;font style=&quot;font-size: 18px;&quot;&gt;Save&lt;/font&gt;" style="html=1;verticalAlign=bottom;endArrow=block;curved=0;rounded=0;" parent="1" edge="1">
          <mxGeometry width="80" relative="1" as="geometry">
            <mxPoint x="375" y="1930" as="sourcePoint" />
            <mxPoint x="1649.5" y="1930" as="targetPoint" />
          </mxGeometry>
        </mxCell>
        <mxCell id="XLQYAiqoUqziNo8lfi08-83" value="&lt;font style=&quot;font-size: 18px;&quot;&gt;return&lt;/font&gt;" style="html=1;verticalAlign=bottom;endArrow=open;dashed=1;endSize=8;curved=0;rounded=0;" parent="1" target="XLQYAiqoUqziNo8lfi08-78" edge="1">
          <mxGeometry relative="1" as="geometry">
            <mxPoint x="1649.5" y="1970" as="sourcePoint" />
            <mxPoint x="209.5" y="1970" as="targetPoint" />
          </mxGeometry>
        </mxCell>
        <mxCell id="XLQYAiqoUqziNo8lfi08-84" value="&lt;font style=&quot;font-size: 18px;&quot;&gt;return&lt;/font&gt;" style="html=1;verticalAlign=bottom;endArrow=open;dashed=1;endSize=8;curved=0;rounded=0;" parent="1" edge="1">
          <mxGeometry relative="1" as="geometry">
            <mxPoint x="370" y="1970" as="sourcePoint" />
            <mxPoint x="99.5" y="1970" as="targetPoint" />
          </mxGeometry>
        </mxCell>
        <mxCell id="XLQYAiqoUqziNo8lfi08-85" value="&lt;font style=&quot;font-size: 18px;&quot;&gt;[ else exist ]&amp;nbsp;&lt;/font&gt;" style="text;align=center;fontStyle=1;verticalAlign=middle;spacingLeft=3;spacingRight=3;strokeColor=none;rotatable=0;points=[[0,0.5],[1,0.5]];portConstraint=eastwest;html=1;" parent="1" vertex="1">
          <mxGeometry x="120" y="2030" width="80" height="26" as="geometry" />
        </mxCell>
        <mxCell id="XLQYAiqoUqziNo8lfi08-86" value="" style="html=1;points=[[0,0,0,0,5],[0,1,0,0,-5],[1,0,0,0,5],[1,1,0,0,-5]];perimeter=orthogonalPerimeter;outlineConnect=0;targetShapes=umlLifeline;portConstraint=eastwest;newEdgeStyle={&quot;curved&quot;:0,&quot;rounded&quot;:0};" parent="1" vertex="1">
          <mxGeometry x="365" y="2080" width="10" height="80" as="geometry" />
        </mxCell>
        <mxCell id="XLQYAiqoUqziNo8lfi08-87" value="" style="html=1;points=[[0,0,0,0,5],[0,1,0,0,-5],[1,0,0,0,5],[1,1,0,0,-5]];perimeter=orthogonalPerimeter;outlineConnect=0;targetShapes=umlLifeline;portConstraint=eastwest;newEdgeStyle={&quot;curved&quot;:0,&quot;rounded&quot;:0};" parent="1" vertex="1">
          <mxGeometry x="95" y="2080" width="10" height="80" as="geometry" />
        </mxCell>
        <mxCell id="XLQYAiqoUqziNo8lfi08-89" value="&lt;font style=&quot;font-size: 18px;&quot;&gt;Login&lt;/font&gt;" style="html=1;verticalAlign=bottom;endArrow=block;curved=0;rounded=0;" parent="1" target="XLQYAiqoUqziNo8lfi08-86" edge="1">
          <mxGeometry width="80" relative="1" as="geometry">
            <mxPoint x="105" y="2079" as="sourcePoint" />
            <mxPoint x="210" y="2079" as="targetPoint" />
          </mxGeometry>
        </mxCell>
        <mxCell id="XLQYAiqoUqziNo8lfi08-90" value="" style="html=1;points=[[0,0,0,0,5],[0,1,0,0,-5],[1,0,0,0,5],[1,1,0,0,-5]];perimeter=orthogonalPerimeter;outlineConnect=0;targetShapes=umlLifeline;portConstraint=eastwest;newEdgeStyle={&quot;curved&quot;:0,&quot;rounded&quot;:0};" parent="1" vertex="1">
          <mxGeometry x="1645" y="2120" width="10" height="40" as="geometry" />
        </mxCell>
        <mxCell id="XLQYAiqoUqziNo8lfi08-91" value="&lt;font style=&quot;font-size: 18px;&quot;&gt;Check&lt;/font&gt;" style="html=1;verticalAlign=bottom;endArrow=block;curved=0;rounded=0;" parent="1" source="XLQYAiqoUqziNo8lfi08-86" target="XLQYAiqoUqziNo8lfi08-72" edge="1">
          <mxGeometry width="80" relative="1" as="geometry">
            <mxPoint x="215" y="2120" as="sourcePoint" />
            <mxPoint x="1490" y="2120" as="targetPoint" />
          </mxGeometry>
        </mxCell>
        <mxCell id="XLQYAiqoUqziNo8lfi08-92" value="&lt;font style=&quot;font-size: 18px;&quot;&gt;return&lt;/font&gt;" style="html=1;verticalAlign=bottom;endArrow=open;dashed=1;endSize=8;curved=0;rounded=0;" parent="1" source="XLQYAiqoUqziNo8lfi08-72" target="XLQYAiqoUqziNo8lfi08-86" edge="1">
          <mxGeometry relative="1" as="geometry">
            <mxPoint x="1485" y="2160" as="sourcePoint" />
            <mxPoint x="98.96153846153857" y="2160" as="targetPoint" />
          </mxGeometry>
        </mxCell>
        <mxCell id="XLQYAiqoUqziNo8lfi08-93" value="" style="html=1;points=[[0,0,0,0,5],[0,1,0,0,-5],[1,0,0,0,5],[1,1,0,0,-5]];perimeter=orthogonalPerimeter;outlineConnect=0;targetShapes=umlLifeline;portConstraint=eastwest;newEdgeStyle={&quot;curved&quot;:0,&quot;rounded&quot;:0};" parent="1" vertex="1">
          <mxGeometry x="95" y="2200" width="10" height="80" as="geometry" />
        </mxCell>
        <mxCell id="XLQYAiqoUqziNo8lfi08-95" value="&lt;font style=&quot;font-size: 18px;&quot;&gt;Manage Profile ( view , edit )&lt;/font&gt;" style="html=1;verticalAlign=bottom;endArrow=block;curved=0;rounded=0;" parent="1" edge="1">
          <mxGeometry width="80" relative="1" as="geometry">
            <mxPoint x="105" y="2200" as="sourcePoint" />
            <mxPoint x="369.5" y="2200" as="targetPoint" />
          </mxGeometry>
        </mxCell>
        <mxCell id="XLQYAiqoUqziNo8lfi08-96" value="" style="html=1;points=[[0,0,0,0,5],[0,1,0,0,-5],[1,0,0,0,5],[1,1,0,0,-5]];perimeter=orthogonalPerimeter;outlineConnect=0;targetShapes=umlLifeline;portConstraint=eastwest;newEdgeStyle={&quot;curved&quot;:0,&quot;rounded&quot;:0};" parent="1" vertex="1">
          <mxGeometry x="1645" y="2240" width="10" height="40" as="geometry" />
        </mxCell>
        <mxCell id="XLQYAiqoUqziNo8lfi08-97" value="&lt;font style=&quot;font-size: 18px;&quot;&gt;save changes&amp;nbsp;&lt;/font&gt;" style="html=1;verticalAlign=bottom;endArrow=block;curved=0;rounded=0;" parent="1" target="XLQYAiqoUqziNo8lfi08-96" edge="1">
          <mxGeometry width="80" relative="1" as="geometry">
            <mxPoint x="370" y="2240" as="sourcePoint" />
            <mxPoint x="450" y="2240" as="targetPoint" />
          </mxGeometry>
        </mxCell>
        <mxCell id="XLQYAiqoUqziNo8lfi08-98" value="&lt;font style=&quot;font-size: 18px;&quot;&gt;return&lt;/font&gt;" style="html=1;verticalAlign=bottom;endArrow=open;dashed=1;endSize=8;curved=0;rounded=0;" parent="1" source="XLQYAiqoUqziNo8lfi08-72" edge="1">
          <mxGeometry relative="1" as="geometry">
            <mxPoint x="1485" y="2278.89" as="sourcePoint" />
            <mxPoint x="368.96153846153857" y="2278.89" as="targetPoint" />
          </mxGeometry>
        </mxCell>
        <mxCell id="XLQYAiqoUqziNo8lfi08-99" value="&lt;font style=&quot;font-size: 18px;&quot;&gt;return&lt;/font&gt;" style="html=1;verticalAlign=bottom;endArrow=open;dashed=1;endSize=8;curved=0;rounded=0;" parent="1" edge="1">
          <mxGeometry relative="1" as="geometry">
            <mxPoint x="370" y="2280" as="sourcePoint" />
            <mxPoint x="98.96153846153857" y="2280" as="targetPoint" />
          </mxGeometry>
        </mxCell>
        <mxCell id="XLQYAiqoUqziNo8lfi08-100" value="" style="html=1;points=[[0,0,0,0,5],[0,1,0,0,-5],[1,0,0,0,5],[1,1,0,0,-5]];perimeter=orthogonalPerimeter;outlineConnect=0;targetShapes=umlLifeline;portConstraint=eastwest;newEdgeStyle={&quot;curved&quot;:0,&quot;rounded&quot;:0};" parent="1" vertex="1">
          <mxGeometry x="95" y="2320" width="10" height="40" as="geometry" />
        </mxCell>
        <mxCell id="XLQYAiqoUqziNo8lfi08-102" value="&lt;font style=&quot;font-size: 18px;&quot;&gt;Search / Browse&amp;nbsp;&lt;/font&gt;&lt;span style=&quot;font-size: medium;&quot;&gt;product&lt;/span&gt;" style="html=1;verticalAlign=bottom;endArrow=block;curved=0;rounded=0;" parent="1" target="XLQYAiqoUqziNo8lfi08-66" edge="1">
          <mxGeometry width="80" relative="1" as="geometry">
            <mxPoint x="105" y="2320" as="sourcePoint" />
            <mxPoint x="209.5" y="2320" as="targetPoint" />
          </mxGeometry>
        </mxCell>
        <mxCell id="XLQYAiqoUqziNo8lfi08-103" value="&lt;font style=&quot;font-size: 18px;&quot;&gt;return&lt;/font&gt;" style="html=1;verticalAlign=bottom;endArrow=open;dashed=1;endSize=8;curved=0;rounded=0;" parent="1" source="XLQYAiqoUqziNo8lfi08-66" target="XLQYAiqoUqziNo8lfi08-100" edge="1">
          <mxGeometry relative="1" as="geometry">
            <mxPoint x="205" y="2359.44" as="sourcePoint" />
            <mxPoint x="125" y="2359.44" as="targetPoint" />
          </mxGeometry>
        </mxCell>
        <mxCell id="XLQYAiqoUqziNo8lfi08-104" value="" style="html=1;points=[[0,0,0,0,5],[0,1,0,0,-5],[1,0,0,0,5],[1,1,0,0,-5]];perimeter=orthogonalPerimeter;outlineConnect=0;targetShapes=umlLifeline;portConstraint=eastwest;newEdgeStyle={&quot;curved&quot;:0,&quot;rounded&quot;:0};" parent="1" vertex="1">
          <mxGeometry x="95" y="2400" width="10" height="240" as="geometry" />
        </mxCell>
        <mxCell id="XLQYAiqoUqziNo8lfi08-106" value="" style="html=1;points=[[0,0,0,0,5],[0,1,0,0,-5],[1,0,0,0,5],[1,1,0,0,-5]];perimeter=orthogonalPerimeter;outlineConnect=0;targetShapes=umlLifeline;portConstraint=eastwest;newEdgeStyle={&quot;curved&quot;:0,&quot;rounded&quot;:0};" parent="1" vertex="1">
          <mxGeometry x="525" y="2400" width="10" height="40" as="geometry" />
        </mxCell>
        <mxCell id="XLQYAiqoUqziNo8lfi08-107" value="&lt;font style=&quot;font-size: 18px;&quot;&gt;View Product Details&lt;/font&gt;" style="html=1;verticalAlign=bottom;endArrow=block;curved=0;rounded=0;" parent="1" edge="1">
          <mxGeometry width="80" relative="1" as="geometry">
            <mxPoint x="105" y="2400" as="sourcePoint" />
            <mxPoint x="529.5" y="2400" as="targetPoint" />
          </mxGeometry>
        </mxCell>
        <mxCell id="XLQYAiqoUqziNo8lfi08-108" value="&lt;font style=&quot;font-size: 18px;&quot;&gt;Add to cart&lt;/font&gt;" style="html=1;verticalAlign=bottom;endArrow=block;curved=0;rounded=0;" parent="1" edge="1">
          <mxGeometry width="80" relative="1" as="geometry">
            <mxPoint x="529.4473684210525" y="2440" as="sourcePoint" />
            <mxPoint x="685" y="2440" as="targetPoint" />
          </mxGeometry>
        </mxCell>
        <mxCell id="XLQYAiqoUqziNo8lfi08-110" value="&lt;font style=&quot;font-size: 18px;&quot;&gt;Save&lt;/font&gt;" style="html=1;verticalAlign=bottom;endArrow=block;curved=0;rounded=0;" parent="1" target="XLQYAiqoUqziNo8lfi08-111" edge="1">
          <mxGeometry width="80" relative="1" as="geometry">
            <mxPoint x="700" y="2480" as="sourcePoint" />
            <mxPoint x="780" y="2480" as="targetPoint" />
          </mxGeometry>
        </mxCell>
        <mxCell id="XLQYAiqoUqziNo8lfi08-111" value="" style="html=1;points=[[0,0,0,0,5],[0,1,0,0,-5],[1,0,0,0,5],[1,1,0,0,-5]];perimeter=orthogonalPerimeter;outlineConnect=0;targetShapes=umlLifeline;portConstraint=eastwest;newEdgeStyle={&quot;curved&quot;:0,&quot;rounded&quot;:0};" parent="1" vertex="1">
          <mxGeometry x="1645" y="2480" width="10" height="40" as="geometry" />
        </mxCell>
        <mxCell id="XLQYAiqoUqziNo8lfi08-112" value="&lt;font style=&quot;font-size: 18px;&quot;&gt;return&lt;/font&gt;" style="html=1;verticalAlign=bottom;endArrow=open;dashed=1;endSize=8;curved=0;rounded=0;" parent="1" source="XLQYAiqoUqziNo8lfi08-72" edge="1">
          <mxGeometry relative="1" as="geometry">
            <mxPoint x="1485" y="2520" as="sourcePoint" />
            <mxPoint x="688.5" y="2520" as="targetPoint" />
          </mxGeometry>
        </mxCell>
        <mxCell id="XLQYAiqoUqziNo8lfi08-114" value="&lt;font style=&quot;font-size: 18px;&quot;&gt;View / Edit Cart&amp;nbsp;&lt;/font&gt;" style="html=1;verticalAlign=bottom;endArrow=block;curved=0;rounded=0;" parent="1" target="XLQYAiqoUqziNo8lfi08-115" edge="1">
          <mxGeometry width="80" relative="1" as="geometry">
            <mxPoint x="105" y="2560" as="sourcePoint" />
            <mxPoint x="185" y="2560" as="targetPoint" />
          </mxGeometry>
        </mxCell>
        <mxCell id="XLQYAiqoUqziNo8lfi08-115" value="" style="html=1;points=[[0,0,0,0,5],[0,1,0,0,-5],[1,0,0,0,5],[1,1,0,0,-5]];perimeter=orthogonalPerimeter;outlineConnect=0;targetShapes=umlLifeline;portConstraint=eastwest;newEdgeStyle={&quot;curved&quot;:0,&quot;rounded&quot;:0};" parent="1" vertex="1">
          <mxGeometry x="685" y="2560" width="10" height="80" as="geometry" />
        </mxCell>
        <mxCell id="XLQYAiqoUqziNo8lfi08-116" value="&lt;font style=&quot;font-size: 18px;&quot;&gt;Save&amp;nbsp;&lt;/font&gt;" style="html=1;verticalAlign=bottom;endArrow=block;curved=0;rounded=0;" parent="1" target="XLQYAiqoUqziNo8lfi08-117" edge="1">
          <mxGeometry width="80" relative="1" as="geometry">
            <mxPoint x="695" y="2600" as="sourcePoint" />
            <mxPoint x="775" y="2600" as="targetPoint" />
          </mxGeometry>
        </mxCell>
        <mxCell id="XLQYAiqoUqziNo8lfi08-117" value="" style="html=1;points=[[0,0,0,0,5],[0,1,0,0,-5],[1,0,0,0,5],[1,1,0,0,-5]];perimeter=orthogonalPerimeter;outlineConnect=0;targetShapes=umlLifeline;portConstraint=eastwest;newEdgeStyle={&quot;curved&quot;:0,&quot;rounded&quot;:0};" parent="1" vertex="1">
          <mxGeometry x="1645" y="2600" width="10" height="40" as="geometry" />
        </mxCell>
        <mxCell id="XLQYAiqoUqziNo8lfi08-118" value="&lt;font style=&quot;font-size: 18px;&quot;&gt;return&lt;/font&gt;" style="html=1;verticalAlign=bottom;endArrow=open;dashed=1;endSize=8;curved=0;rounded=0;" parent="1" source="XLQYAiqoUqziNo8lfi08-72" edge="1">
          <mxGeometry relative="1" as="geometry">
            <mxPoint x="1485" y="2640" as="sourcePoint" />
            <mxPoint x="688.5" y="2640" as="targetPoint" />
          </mxGeometry>
        </mxCell>
        <mxCell id="XLQYAiqoUqziNo8lfi08-119" value="&lt;font style=&quot;font-size: 18px;&quot;&gt;return&lt;/font&gt;" style="html=1;verticalAlign=bottom;endArrow=open;dashed=1;endSize=8;curved=0;rounded=0;" parent="1" edge="1">
          <mxGeometry relative="1" as="geometry">
            <mxPoint x="685" y="2640" as="sourcePoint" />
            <mxPoint x="98.5" y="2640" as="targetPoint" />
          </mxGeometry>
        </mxCell>
        <mxCell id="XLQYAiqoUqziNo8lfi08-121" value="" style="html=1;points=[[0,0,0,0,5],[0,1,0,0,-5],[1,0,0,0,5],[1,1,0,0,-5]];perimeter=orthogonalPerimeter;outlineConnect=0;targetShapes=umlLifeline;portConstraint=eastwest;newEdgeStyle={&quot;curved&quot;:0,&quot;rounded&quot;:0};" parent="1" vertex="1">
          <mxGeometry x="845" y="2680" width="10" height="40" as="geometry" />
        </mxCell>
        <mxCell id="XLQYAiqoUqziNo8lfi08-122" value="&lt;font style=&quot;font-size: 18px;&quot;&gt;Place An Order For Rent&amp;nbsp;&lt;/font&gt;" style="html=1;verticalAlign=bottom;endArrow=block;curved=0;rounded=0;" parent="1" edge="1">
          <mxGeometry width="80" relative="1" as="geometry">
            <mxPoint x="105" y="2680" as="sourcePoint" />
            <mxPoint x="849.5" y="2680" as="targetPoint" />
          </mxGeometry>
        </mxCell>
        <mxCell id="XLQYAiqoUqziNo8lfi08-123" value="" style="html=1;points=[[0,0,0,0,5],[0,1,0,0,-5],[1,0,0,0,5],[1,1,0,0,-5]];perimeter=orthogonalPerimeter;outlineConnect=0;targetShapes=umlLifeline;portConstraint=eastwest;newEdgeStyle={&quot;curved&quot;:0,&quot;rounded&quot;:0};" parent="1" vertex="1">
          <mxGeometry x="1005" y="2720" width="10" height="40" as="geometry" />
        </mxCell>
        <mxCell id="XLQYAiqoUqziNo8lfi08-124" value="&lt;font style=&quot;font-size: 18px;&quot;&gt;Redirect&lt;/font&gt;" style="html=1;verticalAlign=bottom;endArrow=block;curved=0;rounded=0;" parent="1" edge="1">
          <mxGeometry width="80" relative="1" as="geometry">
            <mxPoint x="855" y="2720" as="sourcePoint" />
            <mxPoint x="1005" y="2720" as="targetPoint" />
          </mxGeometry>
        </mxCell>
        <mxCell id="XLQYAiqoUqziNo8lfi08-125" value="&lt;font style=&quot;font-size: 18px;&quot;&gt;return&lt;/font&gt;" style="html=1;verticalAlign=bottom;endArrow=open;dashed=1;endSize=8;curved=0;rounded=0;" parent="1" edge="1">
          <mxGeometry relative="1" as="geometry">
            <mxPoint x="1005" y="2759.44" as="sourcePoint" />
            <mxPoint x="98.5" y="2759.44" as="targetPoint" />
          </mxGeometry>
        </mxCell>
        <mxCell id="XLQYAiqoUqziNo8lfi08-126" value="" style="html=1;points=[[0,0,0,0,5],[0,1,0,0,-5],[1,0,0,0,5],[1,1,0,0,-5]];perimeter=orthogonalPerimeter;outlineConnect=0;targetShapes=umlLifeline;portConstraint=eastwest;newEdgeStyle={&quot;curved&quot;:0,&quot;rounded&quot;:0};" parent="1" vertex="1">
          <mxGeometry x="95" y="2800" width="10" height="30" as="geometry" />
        </mxCell>
        <mxCell id="XLQYAiqoUqziNo8lfi08-127" value="" style="html=1;points=[[0,0,0,0,5],[0,1,0,0,-5],[1,0,0,0,5],[1,1,0,0,-5]];perimeter=orthogonalPerimeter;outlineConnect=0;targetShapes=umlLifeline;portConstraint=eastwest;newEdgeStyle={&quot;curved&quot;:0,&quot;rounded&quot;:0};" parent="1" vertex="1">
          <mxGeometry x="1005" y="2800" width="10" height="30" as="geometry" />
        </mxCell>
        <mxCell id="XLQYAiqoUqziNo8lfi08-128" value="&lt;font style=&quot;font-size: 18px;&quot;&gt;Select Payment Method&amp;nbsp;&lt;/font&gt;" style="html=1;verticalAlign=bottom;endArrow=block;curved=0;rounded=0;" parent="1" edge="1">
          <mxGeometry width="80" relative="1" as="geometry">
            <mxPoint x="110" y="2800" as="sourcePoint" />
            <mxPoint x="1009.5" y="2800" as="targetPoint" />
          </mxGeometry>
        </mxCell>
        <mxCell id="XLQYAiqoUqziNo8lfi08-129" value="&lt;font style=&quot;font-size: 18px;&quot;&gt;alt&lt;/font&gt;" style="shape=umlFrame;whiteSpace=wrap;html=1;pointerEvents=0;" parent="1" vertex="1">
          <mxGeometry x="70" y="2830" width="1620" height="590" as="geometry" />
        </mxCell>
        <mxCell id="XLQYAiqoUqziNo8lfi08-130" value="&lt;font style=&quot;font-size: 18px;&quot;&gt;[ if method == online ]&amp;nbsp;&lt;/font&gt;" style="text;align=center;fontStyle=1;verticalAlign=middle;spacingLeft=3;spacingRight=3;strokeColor=none;rotatable=0;points=[[0,0.5],[1,0.5]];portConstraint=eastwest;html=1;" parent="1" vertex="1">
          <mxGeometry x="170" y="2870" width="80" height="26" as="geometry" />
        </mxCell>
        <mxCell id="XLQYAiqoUqziNo8lfi08-131" value="&lt;font style=&quot;font-size: 18px;&quot;&gt;Redirect to payment gateway page&lt;/font&gt;" style="html=1;verticalAlign=bottom;endArrow=block;curved=0;rounded=0;" parent="1" edge="1" source="yZpoLFo5JD8WxAo0yh-B-11">
          <mxGeometry width="80" relative="1" as="geometry">
            <mxPoint x="1005.61" y="2920" as="sourcePoint" />
            <mxPoint x="98.5" y="2920" as="targetPoint" />
          </mxGeometry>
        </mxCell>
        <mxCell id="XLQYAiqoUqziNo8lfi08-134" value="&lt;font style=&quot;font-size: 18px;&quot;&gt;Enter necessary Details&amp;nbsp;&lt;/font&gt;" style="html=1;verticalAlign=bottom;endArrow=block;curved=0;rounded=0;" parent="1" edge="1">
          <mxGeometry width="80" relative="1" as="geometry">
            <mxPoint x="105" y="2959.44" as="sourcePoint" />
            <mxPoint x="1009.5" y="2959.44" as="targetPoint" />
          </mxGeometry>
        </mxCell>
        <mxCell id="XLQYAiqoUqziNo8lfi08-135" value="" style="html=1;points=[[0,0,0,0,5],[0,1,0,0,-5],[1,0,0,0,5],[1,1,0,0,-5]];perimeter=orthogonalPerimeter;outlineConnect=0;targetShapes=umlLifeline;portConstraint=eastwest;newEdgeStyle={&quot;curved&quot;:0,&quot;rounded&quot;:0};" parent="1" vertex="1">
          <mxGeometry x="1005" y="3000" width="10" height="40" as="geometry" />
        </mxCell>
        <mxCell id="XLQYAiqoUqziNo8lfi08-136" value="&lt;font style=&quot;font-size: 18px;&quot;&gt;Validate&lt;/font&gt;" style="html=1;align=left;spacingLeft=2;endArrow=block;rounded=0;edgeStyle=orthogonalEdgeStyle;curved=0;rounded=0;" parent="1" target="XLQYAiqoUqziNo8lfi08-135" edge="1">
          <mxGeometry relative="1" as="geometry">
            <mxPoint x="1010" y="2980" as="sourcePoint" />
            <Array as="points">
              <mxPoint x="1040" y="3010" />
            </Array>
          </mxGeometry>
        </mxCell>
        <mxCell id="XLQYAiqoUqziNo8lfi08-137" value="" style="html=1;points=[[0,0,0,0,5],[0,1,0,0,-5],[1,0,0,0,5],[1,1,0,0,-5]];perimeter=orthogonalPerimeter;outlineConnect=0;targetShapes=umlLifeline;portConstraint=eastwest;newEdgeStyle={&quot;curved&quot;:0,&quot;rounded&quot;:0};" parent="1" vertex="1">
          <mxGeometry x="1005" y="3080" width="10" height="120" as="geometry" />
        </mxCell>
        <mxCell id="XLQYAiqoUqziNo8lfi08-138" value="" style="html=1;points=[[0,0,0,0,5],[0,1,0,0,-5],[1,0,0,0,5],[1,1,0,0,-5]];perimeter=orthogonalPerimeter;outlineConnect=0;targetShapes=umlLifeline;portConstraint=eastwest;newEdgeStyle={&quot;curved&quot;:0,&quot;rounded&quot;:0};" parent="1" vertex="1">
          <mxGeometry x="95" y="3080" width="10" height="120" as="geometry" />
        </mxCell>
        <mxCell id="XLQYAiqoUqziNo8lfi08-139" value="&lt;font style=&quot;font-size: 18px;&quot;&gt;Display Order Summary&lt;/font&gt;" style="html=1;verticalAlign=bottom;endArrow=block;curved=0;rounded=0;" parent="1" edge="1">
          <mxGeometry width="80" relative="1" as="geometry">
            <mxPoint x="1009.5" y="3080" as="sourcePoint" />
            <mxPoint x="104.38888888888914" y="3080" as="targetPoint" />
          </mxGeometry>
        </mxCell>
        <mxCell id="XLQYAiqoUqziNo8lfi08-140" value="&lt;font style=&quot;font-size: 18px;&quot;&gt;Confirm &amp;amp; Make Payment&amp;nbsp;&lt;/font&gt;" style="html=1;verticalAlign=bottom;endArrow=block;curved=0;rounded=0;" parent="1" edge="1">
          <mxGeometry width="80" relative="1" as="geometry">
            <mxPoint x="105" y="3119.44" as="sourcePoint" />
            <mxPoint x="1009.5" y="3119.44" as="targetPoint" />
          </mxGeometry>
        </mxCell>
        <mxCell id="XLQYAiqoUqziNo8lfi08-141" value="&lt;font style=&quot;font-size: 18px;&quot;&gt;Save&lt;/font&gt;" style="html=1;verticalAlign=bottom;endArrow=block;curved=0;rounded=0;" parent="1" edge="1">
          <mxGeometry x="0.0114" y="10" width="80" relative="1" as="geometry">
            <mxPoint x="1005" y="3160" as="sourcePoint" />
            <mxPoint x="1649.5000000000005" y="3160" as="targetPoint" />
            <mxPoint x="-1" as="offset" />
          </mxGeometry>
        </mxCell>
        <mxCell id="XLQYAiqoUqziNo8lfi08-142" value="" style="html=1;points=[[0,0,0,0,5],[0,1,0,0,-5],[1,0,0,0,5],[1,1,0,0,-5]];perimeter=orthogonalPerimeter;outlineConnect=0;targetShapes=umlLifeline;portConstraint=eastwest;newEdgeStyle={&quot;curved&quot;:0,&quot;rounded&quot;:0};" parent="1" vertex="1">
          <mxGeometry x="1645" y="3160" width="10" height="40" as="geometry" />
        </mxCell>
        <mxCell id="XLQYAiqoUqziNo8lfi08-143" value="&lt;font style=&quot;font-size: 18px;&quot;&gt;return&lt;/font&gt;" style="html=1;verticalAlign=bottom;endArrow=open;dashed=1;endSize=8;curved=0;rounded=0;" parent="1" edge="1">
          <mxGeometry relative="1" as="geometry">
            <mxPoint x="1649.5000000000005" y="3200" as="sourcePoint" />
            <mxPoint x="1010" y="3200" as="targetPoint" />
          </mxGeometry>
        </mxCell>
        <mxCell id="XLQYAiqoUqziNo8lfi08-144" value="&lt;font style=&quot;font-size: 18px;&quot;&gt;return&lt;/font&gt;" style="html=1;verticalAlign=bottom;endArrow=open;dashed=1;endSize=8;curved=0;rounded=0;" parent="1" target="XLQYAiqoUqziNo8lfi08-138" edge="1">
          <mxGeometry relative="1" as="geometry">
            <mxPoint x="1000" y="3198.89" as="sourcePoint" />
            <mxPoint x="920" y="3198.89" as="targetPoint" />
          </mxGeometry>
        </mxCell>
        <mxCell id="XLQYAiqoUqziNo8lfi08-145" value="&lt;font style=&quot;font-size: 18px;&quot;&gt;[ else if method == offline ]&amp;nbsp;&lt;/font&gt;" style="text;align=center;fontStyle=1;verticalAlign=middle;spacingLeft=3;spacingRight=3;strokeColor=none;rotatable=0;points=[[0,0.5],[1,0.5]];portConstraint=eastwest;html=1;" parent="1" vertex="1">
          <mxGeometry x="180" y="3230" width="80" height="26" as="geometry" />
        </mxCell>
        <mxCell id="XLQYAiqoUqziNo8lfi08-147" value="" style="html=1;points=[[0,0,0,0,5],[0,1,0,0,-5],[1,0,0,0,5],[1,1,0,0,-5]];perimeter=orthogonalPerimeter;outlineConnect=0;targetShapes=umlLifeline;portConstraint=eastwest;newEdgeStyle={&quot;curved&quot;:0,&quot;rounded&quot;:0};" parent="1" vertex="1">
          <mxGeometry x="95" y="3280" width="10" height="120" as="geometry" />
        </mxCell>
        <mxCell id="XLQYAiqoUqziNo8lfi08-148" value="" style="html=1;points=[[0,0,0,0,5],[0,1,0,0,-5],[1,0,0,0,5],[1,1,0,0,-5]];perimeter=orthogonalPerimeter;outlineConnect=0;targetShapes=umlLifeline;portConstraint=eastwest;newEdgeStyle={&quot;curved&quot;:0,&quot;rounded&quot;:0};" parent="1" vertex="1">
          <mxGeometry x="1005" y="3280" width="10" height="120" as="geometry" />
        </mxCell>
        <mxCell id="XLQYAiqoUqziNo8lfi08-149" value="&lt;font style=&quot;font-size: 18px;&quot;&gt;Display Order Summary&lt;/font&gt;" style="html=1;verticalAlign=bottom;endArrow=block;curved=0;rounded=0;" parent="1" edge="1">
          <mxGeometry width="80" relative="1" as="geometry">
            <mxPoint x="1010.61" y="3278.89" as="sourcePoint" />
            <mxPoint x="104.99888888888914" y="3278.89" as="targetPoint" />
          </mxGeometry>
        </mxCell>
        <mxCell id="XLQYAiqoUqziNo8lfi08-150" value="&lt;font style=&quot;font-size: 18px;&quot;&gt;Confirm&amp;nbsp;&lt;/font&gt;" style="html=1;verticalAlign=bottom;endArrow=block;curved=0;rounded=0;" parent="1" edge="1">
          <mxGeometry width="80" relative="1" as="geometry">
            <mxPoint x="100" y="3320.44" as="sourcePoint" />
            <mxPoint x="1005" y="3320" as="targetPoint" />
          </mxGeometry>
        </mxCell>
        <mxCell id="XLQYAiqoUqziNo8lfi08-151" value="" style="html=1;points=[[0,0,0,0,5],[0,1,0,0,-5],[1,0,0,0,5],[1,1,0,0,-5]];perimeter=orthogonalPerimeter;outlineConnect=0;targetShapes=umlLifeline;portConstraint=eastwest;newEdgeStyle={&quot;curved&quot;:0,&quot;rounded&quot;:0};" parent="1" vertex="1">
          <mxGeometry x="1645" y="3360" width="10" height="40" as="geometry" />
        </mxCell>
        <mxCell id="XLQYAiqoUqziNo8lfi08-153" value="&lt;font style=&quot;font-size: 18px;&quot;&gt;Save&lt;/font&gt;" style="html=1;verticalAlign=bottom;endArrow=block;curved=0;rounded=0;" parent="1" edge="1">
          <mxGeometry x="0.0114" y="10" width="80" relative="1" as="geometry">
            <mxPoint x="1020" y="3360" as="sourcePoint" />
            <mxPoint x="1649.5000000000005" y="3360" as="targetPoint" />
            <mxPoint x="-1" as="offset" />
          </mxGeometry>
        </mxCell>
        <mxCell id="XLQYAiqoUqziNo8lfi08-154" value="&lt;font style=&quot;font-size: 18px;&quot;&gt;return&lt;/font&gt;" style="html=1;verticalAlign=bottom;endArrow=open;dashed=1;endSize=8;curved=0;rounded=0;" parent="1" edge="1">
          <mxGeometry relative="1" as="geometry">
            <mxPoint x="1649.5000000000005" y="3400" as="sourcePoint" />
            <mxPoint x="1010" y="3400" as="targetPoint" />
          </mxGeometry>
        </mxCell>
        <mxCell id="XLQYAiqoUqziNo8lfi08-155" value="&lt;font style=&quot;font-size: 18px;&quot;&gt;return&lt;/font&gt;" style="html=1;verticalAlign=bottom;endArrow=open;dashed=1;endSize=8;curved=0;rounded=0;" parent="1" edge="1">
          <mxGeometry relative="1" as="geometry">
            <mxPoint x="1000" y="3400" as="sourcePoint" />
            <mxPoint x="105" y="3400.11" as="targetPoint" />
          </mxGeometry>
        </mxCell>
        <mxCell id="XLQYAiqoUqziNo8lfi08-157" value="" style="html=1;points=[[0,0,0,0,5],[0,1,0,0,-5],[1,0,0,0,5],[1,1,0,0,-5]];perimeter=orthogonalPerimeter;outlineConnect=0;targetShapes=umlLifeline;portConstraint=eastwest;newEdgeStyle={&quot;curved&quot;:0,&quot;rounded&quot;:0};" parent="1" vertex="1">
          <mxGeometry x="95" y="3470" width="10" height="80" as="geometry" />
        </mxCell>
        <mxCell id="XLQYAiqoUqziNo8lfi08-158" value="" style="html=1;points=[[0,0,0,0,5],[0,1,0,0,-5],[1,0,0,0,5],[1,1,0,0,-5]];perimeter=orthogonalPerimeter;outlineConnect=0;targetShapes=umlLifeline;portConstraint=eastwest;newEdgeStyle={&quot;curved&quot;:0,&quot;rounded&quot;:0};" parent="1" vertex="1">
          <mxGeometry x="1165" y="3470" width="10" height="80" as="geometry" />
        </mxCell>
        <mxCell id="XLQYAiqoUqziNo8lfi08-159" value="&lt;font style=&quot;font-size: 18px;&quot;&gt;Spin The Wheel&amp;nbsp;&lt;/font&gt;" style="html=1;verticalAlign=bottom;endArrow=block;curved=0;rounded=0;" parent="1" target="XLQYAiqoUqziNo8lfi08-158" edge="1">
          <mxGeometry width="80" relative="1" as="geometry">
            <mxPoint x="105" y="3470" as="sourcePoint" />
            <mxPoint x="185" y="3470" as="targetPoint" />
          </mxGeometry>
        </mxCell>
        <mxCell id="XLQYAiqoUqziNo8lfi08-160" value="" style="html=1;points=[[0,0,0,0,5],[0,1,0,0,-5],[1,0,0,0,5],[1,1,0,0,-5]];perimeter=orthogonalPerimeter;outlineConnect=0;targetShapes=umlLifeline;portConstraint=eastwest;newEdgeStyle={&quot;curved&quot;:0,&quot;rounded&quot;:0};" parent="1" vertex="1">
          <mxGeometry x="1645" y="3510" width="10" height="80" as="geometry" />
        </mxCell>
        <mxCell id="XLQYAiqoUqziNo8lfi08-161" value="&lt;font style=&quot;font-size: 18px;&quot;&gt;Save Reward&amp;nbsp;&lt;/font&gt;" style="html=1;verticalAlign=bottom;endArrow=block;curved=0;rounded=0;" parent="1" edge="1">
          <mxGeometry width="80" relative="1" as="geometry">
            <mxPoint x="1175" y="3510" as="sourcePoint" />
            <mxPoint x="1649.5000000000005" y="3510" as="targetPoint" />
          </mxGeometry>
        </mxCell>
        <mxCell id="XLQYAiqoUqziNo8lfi08-162" value="&lt;font style=&quot;font-size: 18px;&quot;&gt;return&lt;/font&gt;" style="html=1;verticalAlign=bottom;endArrow=open;dashed=1;endSize=8;curved=0;rounded=0;" parent="1" edge="1">
          <mxGeometry relative="1" as="geometry">
            <mxPoint x="1649.5000000000005" y="3548.89" as="sourcePoint" />
            <mxPoint x="1168.5" y="3548.89" as="targetPoint" />
          </mxGeometry>
        </mxCell>
        <mxCell id="XLQYAiqoUqziNo8lfi08-163" value="&lt;font style=&quot;font-size: 18px;&quot;&gt;return&lt;/font&gt;" style="html=1;verticalAlign=bottom;endArrow=open;dashed=1;endSize=8;curved=0;rounded=0;" parent="1" edge="1">
          <mxGeometry relative="1" as="geometry">
            <mxPoint x="1175" y="3550" as="sourcePoint" />
            <mxPoint x="98.5" y="3550" as="targetPoint" />
          </mxGeometry>
        </mxCell>
        <mxCell id="XLQYAiqoUqziNo8lfi08-164" value="" style="html=1;points=[[0,0,0,0,5],[0,1,0,0,-5],[1,0,0,0,5],[1,1,0,0,-5]];perimeter=orthogonalPerimeter;outlineConnect=0;targetShapes=umlLifeline;portConstraint=eastwest;newEdgeStyle={&quot;curved&quot;:0,&quot;rounded&quot;:0};" parent="1" vertex="1">
          <mxGeometry x="95" y="3590" width="10" height="200" as="geometry" />
        </mxCell>
        <mxCell id="XLQYAiqoUqziNo8lfi08-165" value="" style="html=1;points=[[0,0,0,0,5],[0,1,0,0,-5],[1,0,0,0,5],[1,1,0,0,-5]];perimeter=orthogonalPerimeter;outlineConnect=0;targetShapes=umlLifeline;portConstraint=eastwest;newEdgeStyle={&quot;curved&quot;:0,&quot;rounded&quot;:0};" parent="1" vertex="1">
          <mxGeometry x="1165" y="3590" width="10" height="40" as="geometry" />
        </mxCell>
        <mxCell id="XLQYAiqoUqziNo8lfi08-166" value="&lt;font style=&quot;font-size: 18px;&quot;&gt;Buy Coupen From Coins&lt;/font&gt;" style="html=1;verticalAlign=bottom;endArrow=block;curved=0;rounded=0;" parent="1" edge="1">
          <mxGeometry width="80" relative="1" as="geometry">
            <mxPoint x="105" y="3590" as="sourcePoint" />
            <mxPoint x="1169.5" y="3590" as="targetPoint" />
          </mxGeometry>
        </mxCell>
        <mxCell id="XLQYAiqoUqziNo8lfi08-169" value="" style="html=1;points=[[0,0,0,0,5],[0,1,0,0,-5],[1,0,0,0,5],[1,1,0,0,-5]];perimeter=orthogonalPerimeter;outlineConnect=0;targetShapes=umlLifeline;portConstraint=eastwest;newEdgeStyle={&quot;curved&quot;:0,&quot;rounded&quot;:0};" parent="1" vertex="1">
          <mxGeometry x="1165" y="3750" width="10" height="40" as="geometry" />
        </mxCell>
        <mxCell id="XLQYAiqoUqziNo8lfi08-170" value="" style="html=1;points=[[0,0,0,0,5],[0,1,0,0,-5],[1,0,0,0,5],[1,1,0,0,-5]];perimeter=orthogonalPerimeter;outlineConnect=0;targetShapes=umlLifeline;portConstraint=eastwest;newEdgeStyle={&quot;curved&quot;:0,&quot;rounded&quot;:0};" parent="1" vertex="1">
          <mxGeometry x="1645" y="3750" width="10" height="40" as="geometry" />
        </mxCell>
        <mxCell id="XLQYAiqoUqziNo8lfi08-171" value="&lt;font style=&quot;font-size: 18px;&quot;&gt;Save&lt;/font&gt;" style="html=1;verticalAlign=bottom;endArrow=block;curved=0;rounded=0;" parent="1" edge="1">
          <mxGeometry width="80" relative="1" as="geometry">
            <mxPoint x="1170" y="3750" as="sourcePoint" />
            <mxPoint x="1649.5000000000005" y="3750" as="targetPoint" />
          </mxGeometry>
        </mxCell>
        <mxCell id="XLQYAiqoUqziNo8lfi08-172" value="&lt;font style=&quot;font-size: 18px;&quot;&gt;return&lt;/font&gt;" style="html=1;verticalAlign=bottom;endArrow=open;dashed=1;endSize=8;curved=0;rounded=0;" parent="1" edge="1">
          <mxGeometry relative="1" as="geometry">
            <mxPoint x="1649.5000000000005" y="3789.44" as="sourcePoint" />
            <mxPoint x="1168.5" y="3789.44" as="targetPoint" />
          </mxGeometry>
        </mxCell>
        <mxCell id="XLQYAiqoUqziNo8lfi08-173" value="&lt;font style=&quot;font-size: 18px;&quot;&gt;return&lt;/font&gt;" style="html=1;verticalAlign=bottom;endArrow=open;dashed=1;endSize=8;curved=0;rounded=0;entryX=1;entryY=1;entryDx=0;entryDy=-5;entryPerimeter=0;" parent="1" target="XLQYAiqoUqziNo8lfi08-164" edge="1">
          <mxGeometry relative="1" as="geometry">
            <mxPoint x="1165" y="3789.44" as="sourcePoint" />
            <mxPoint x="1085" y="3789.44" as="targetPoint" />
          </mxGeometry>
        </mxCell>
        <mxCell id="XLQYAiqoUqziNo8lfi08-174" value="" style="html=1;points=[[0,0,0,0,5],[0,1,0,0,-5],[1,0,0,0,5],[1,1,0,0,-5]];perimeter=orthogonalPerimeter;outlineConnect=0;targetShapes=umlLifeline;portConstraint=eastwest;newEdgeStyle={&quot;curved&quot;:0,&quot;rounded&quot;:0};" parent="1" vertex="1">
          <mxGeometry x="95" y="3830" width="10" height="40" as="geometry" />
        </mxCell>
        <mxCell id="XLQYAiqoUqziNo8lfi08-176" value="&lt;font style=&quot;font-size: 18px;&quot;&gt;Buy Product&lt;/font&gt;" style="html=1;verticalAlign=bottom;endArrow=block;curved=0;rounded=0;" parent="1" edge="1">
          <mxGeometry width="80" relative="1" as="geometry">
            <mxPoint x="110" y="3830" as="sourcePoint" />
            <mxPoint x="1329.5" y="3830" as="targetPoint" />
          </mxGeometry>
        </mxCell>
        <mxCell id="XLQYAiqoUqziNo8lfi08-177" value="&lt;font style=&quot;font-size: 18px;&quot;&gt;return&lt;/font&gt;" style="html=1;verticalAlign=bottom;endArrow=open;dashed=1;endSize=8;curved=0;rounded=0;" parent="1" edge="1">
          <mxGeometry relative="1" as="geometry">
            <mxPoint x="1330" y="3869.33" as="sourcePoint" />
            <mxPoint x="98.5" y="3869.33" as="targetPoint" />
          </mxGeometry>
        </mxCell>
        <mxCell id="XLQYAiqoUqziNo8lfi08-182" value="" style="html=1;points=[[0,0,0,0,5],[0,1,0,0,-5],[1,0,0,0,5],[1,1,0,0,-5]];perimeter=orthogonalPerimeter;outlineConnect=0;targetShapes=umlLifeline;portConstraint=eastwest;newEdgeStyle={&quot;curved&quot;:0,&quot;rounded&quot;:0};" parent="1" vertex="1">
          <mxGeometry x="95" y="4681" width="10" height="160" as="geometry" />
        </mxCell>
        <mxCell id="XLQYAiqoUqziNo8lfi08-183" value="" style="html=1;points=[[0,0,0,0,5],[0,1,0,0,-5],[1,0,0,0,5],[1,1,0,0,-5]];perimeter=orthogonalPerimeter;outlineConnect=0;targetShapes=umlLifeline;portConstraint=eastwest;newEdgeStyle={&quot;curved&quot;:0,&quot;rounded&quot;:0};" parent="1" vertex="1">
          <mxGeometry x="845" y="4681" width="10" height="160" as="geometry" />
        </mxCell>
        <mxCell id="XLQYAiqoUqziNo8lfi08-184" value="&lt;font style=&quot;font-size: 18px;&quot;&gt;View Order History&amp;nbsp;&lt;/font&gt;" style="html=1;verticalAlign=bottom;endArrow=block;curved=0;rounded=0;" parent="1" edge="1">
          <mxGeometry width="80" relative="1" as="geometry">
            <mxPoint x="105" y="4680" as="sourcePoint" />
            <mxPoint x="849.5" y="4680" as="targetPoint" />
          </mxGeometry>
        </mxCell>
        <mxCell id="XLQYAiqoUqziNo8lfi08-185" value="&lt;font style=&quot;font-size: 18px;&quot;&gt;return&lt;/font&gt;" style="html=1;verticalAlign=bottom;endArrow=open;dashed=1;endSize=8;curved=0;rounded=0;" parent="1" edge="1">
          <mxGeometry relative="1" as="geometry">
            <mxPoint x="845" y="4720.5" as="sourcePoint" />
            <mxPoint x="98.5" y="4720.5" as="targetPoint" />
          </mxGeometry>
        </mxCell>
        <mxCell id="XLQYAiqoUqziNo8lfi08-186" value="&lt;font style=&quot;font-size: 18px;&quot;&gt;Select A Order And Add Review&amp;nbsp;&lt;/font&gt;" style="html=1;verticalAlign=bottom;endArrow=block;curved=0;rounded=0;" parent="1" edge="1">
          <mxGeometry width="80" relative="1" as="geometry">
            <mxPoint x="105" y="4760" as="sourcePoint" />
            <mxPoint x="849.5" y="4760" as="targetPoint" />
          </mxGeometry>
        </mxCell>
        <mxCell id="XLQYAiqoUqziNo8lfi08-187" value="" style="html=1;points=[[0,0,0,0,5],[0,1,0,0,-5],[1,0,0,0,5],[1,1,0,0,-5]];perimeter=orthogonalPerimeter;outlineConnect=0;targetShapes=umlLifeline;portConstraint=eastwest;newEdgeStyle={&quot;curved&quot;:0,&quot;rounded&quot;:0};" parent="1" vertex="1">
          <mxGeometry x="1645" y="4801" width="10" height="40" as="geometry" />
        </mxCell>
        <mxCell id="XLQYAiqoUqziNo8lfi08-188" value="&lt;font style=&quot;font-size: 18px;&quot;&gt;Save&amp;nbsp;&lt;/font&gt;" style="html=1;verticalAlign=bottom;endArrow=block;curved=0;rounded=0;" parent="1" edge="1">
          <mxGeometry width="80" relative="1" as="geometry">
            <mxPoint x="855" y="4800" as="sourcePoint" />
            <mxPoint x="1649.5000000000005" y="4800" as="targetPoint" />
          </mxGeometry>
        </mxCell>
        <mxCell id="XLQYAiqoUqziNo8lfi08-189" value="&lt;font style=&quot;font-size: 18px;&quot;&gt;return&lt;/font&gt;" style="html=1;verticalAlign=bottom;endArrow=open;dashed=1;endSize=8;curved=0;rounded=0;" parent="1" edge="1">
          <mxGeometry relative="1" as="geometry">
            <mxPoint x="1649.5000000000005" y="4841" as="sourcePoint" />
            <mxPoint x="848.5" y="4841" as="targetPoint" />
          </mxGeometry>
        </mxCell>
        <mxCell id="XLQYAiqoUqziNo8lfi08-190" value="&lt;font style=&quot;font-size: 18px;&quot;&gt;return&lt;/font&gt;" style="html=1;verticalAlign=bottom;endArrow=open;dashed=1;endSize=8;curved=0;rounded=0;" parent="1" target="XLQYAiqoUqziNo8lfi08-182" edge="1">
          <mxGeometry relative="1" as="geometry">
            <mxPoint x="840" y="4840" as="sourcePoint" />
            <mxPoint x="760" y="4840" as="targetPoint" />
          </mxGeometry>
        </mxCell>
        <mxCell id="XLQYAiqoUqziNo8lfi08-191" value="" style="html=1;points=[[0,0,0,0,5],[0,1,0,0,-5],[1,0,0,0,5],[1,1,0,0,-5]];perimeter=orthogonalPerimeter;outlineConnect=0;targetShapes=umlLifeline;portConstraint=eastwest;newEdgeStyle={&quot;curved&quot;:0,&quot;rounded&quot;:0};" parent="1" vertex="1">
          <mxGeometry x="95" y="4880" width="10" height="100" as="geometry" />
        </mxCell>
        <mxCell id="XLQYAiqoUqziNo8lfi08-193" value="View &amp;amp; Submit&amp;nbsp;&lt;div&gt;Form&amp;nbsp;&lt;/div&gt;" style="html=1;verticalAlign=bottom;endArrow=block;curved=0;rounded=0;" parent="1" target="XLQYAiqoUqziNo8lfi08-192" edge="1">
          <mxGeometry width="80" relative="1" as="geometry">
            <mxPoint x="105" y="4880" as="sourcePoint" />
            <mxPoint x="185" y="4880" as="targetPoint" />
          </mxGeometry>
        </mxCell>
        <mxCell id="XLQYAiqoUqziNo8lfi08-198" value="&lt;font style=&quot;font-size: 18px;&quot;&gt;Logout&amp;nbsp;&lt;/font&gt;" style="html=1;verticalAlign=bottom;endArrow=block;curved=0;rounded=0;" parent="1" edge="1">
          <mxGeometry width="80" relative="1" as="geometry">
            <mxPoint x="110" y="5020" as="sourcePoint" />
            <mxPoint x="369.5" y="5020" as="targetPoint" />
          </mxGeometry>
        </mxCell>
        <mxCell id="XLQYAiqoUqziNo8lfi08-199" value="&lt;font style=&quot;font-size: 18px;&quot;&gt;return&lt;/font&gt;" style="html=1;verticalAlign=bottom;endArrow=open;dashed=1;endSize=8;curved=0;rounded=0;" parent="1" edge="1">
          <mxGeometry relative="1" as="geometry">
            <mxPoint x="370" y="5060" as="sourcePoint" />
            <mxPoint x="98.5" y="5060" as="targetPoint" />
          </mxGeometry>
        </mxCell>
        <mxCell id="EayaK9be07Za2HTiuRu4-1" value="&lt;font style=&quot;font-size: 18px;&quot;&gt;Add To Cart Successfully&lt;/font&gt;" style="html=1;verticalAlign=bottom;endArrow=open;dashed=1;endSize=8;curved=0;rounded=0;" parent="1" target="XLQYAiqoUqziNo8lfi08-104" edge="1">
          <mxGeometry relative="1" as="geometry">
            <mxPoint x="685" y="2518.95" as="sourcePoint" />
            <mxPoint x="-111" y="2518.95" as="targetPoint" />
          </mxGeometry>
        </mxCell>
        <mxCell id="XLQYAiqoUqziNo8lfi08-78" value="" style="html=1;points=[[0,0,0,0,5],[0,1,0,0,-5],[1,0,0,0,5],[1,1,0,0,-5]];perimeter=orthogonalPerimeter;outlineConnect=0;targetShapes=umlLifeline;portConstraint=eastwest;newEdgeStyle={&quot;curved&quot;:0,&quot;rounded&quot;:0};" parent="1" vertex="1">
          <mxGeometry x="365" y="1890" width="10" height="80" as="geometry" />
        </mxCell>
        <mxCell id="KC1MWTV5XPZAkVkvqiZf-2" value="&lt;font style=&quot;font-size: 18px;&quot;&gt;return&lt;/font&gt;" style="html=1;verticalAlign=bottom;endArrow=open;dashed=1;endSize=8;curved=0;rounded=0;" parent="1" edge="1">
          <mxGeometry relative="1" as="geometry">
            <mxPoint x="360" y="2158" as="sourcePoint" />
            <mxPoint x="105" y="2158.46" as="targetPoint" />
          </mxGeometry>
        </mxCell>
        <mxCell id="XLQYAiqoUqziNo8lfi08-101" value="" style="html=1;points=[[0,0,0,0,5],[0,1,0,0,-5],[1,0,0,0,5],[1,1,0,0,-5]];perimeter=orthogonalPerimeter;outlineConnect=0;targetShapes=umlLifeline;portConstraint=eastwest;newEdgeStyle={&quot;curved&quot;:0,&quot;rounded&quot;:0};" parent="1" vertex="1">
          <mxGeometry x="525" y="2320" width="10" height="40" as="geometry" />
        </mxCell>
        <mxCell id="8nZMs0LdViXXeDncEOVs-1" value="" style="html=1;points=[[0,0,0,0,5],[0,1,0,0,-5],[1,0,0,0,5],[1,1,0,0,-5]];perimeter=orthogonalPerimeter;outlineConnect=0;targetShapes=umlLifeline;portConstraint=eastwest;newEdgeStyle={&quot;curved&quot;:0,&quot;rounded&quot;:0};" parent="1" vertex="1">
          <mxGeometry x="95" y="3910" width="10" height="40" as="geometry" />
        </mxCell>
        <mxCell id="8nZMs0LdViXXeDncEOVs-3" value="&lt;font style=&quot;font-size: 18px;&quot;&gt;Buy Back&lt;/font&gt;" style="shape=umlLifeline;perimeter=lifelinePerimeter;whiteSpace=wrap;html=1;container=1;dropTarget=0;collapsible=0;recursiveResize=0;outlineConnect=0;portConstraint=eastwest;newEdgeStyle={&quot;curved&quot;:0,&quot;rounded&quot;:0};" parent="1" vertex="1">
          <mxGeometry x="1440" y="1760" width="100" height="3440" as="geometry" />
        </mxCell>
        <mxCell id="8nZMs0LdViXXeDncEOVs-4" value="" style="html=1;points=[[0,0,0,0,5],[0,1,0,0,-5],[1,0,0,0,5],[1,1,0,0,-5]];perimeter=orthogonalPerimeter;outlineConnect=0;targetShapes=umlLifeline;portConstraint=eastwest;newEdgeStyle={&quot;curved&quot;:0,&quot;rounded&quot;:0};" parent="8nZMs0LdViXXeDncEOVs-3" vertex="1">
          <mxGeometry x="45" y="2150" width="10" height="40" as="geometry" />
        </mxCell>
        <mxCell id="8nZMs0LdViXXeDncEOVs-47" value="" style="html=1;points=[[0,0,0,0,5],[0,1,0,0,-5],[1,0,0,0,5],[1,1,0,0,-5]];perimeter=orthogonalPerimeter;outlineConnect=0;targetShapes=umlLifeline;portConstraint=eastwest;newEdgeStyle={&quot;curved&quot;:0,&quot;rounded&quot;:0};" parent="8nZMs0LdViXXeDncEOVs-3" vertex="1">
          <mxGeometry x="45" y="2800" width="10" height="40" as="geometry" />
        </mxCell>
        <mxCell id="8nZMs0LdViXXeDncEOVs-62" value="" style="shape=umlDestroy;whiteSpace=wrap;html=1;strokeWidth=3;targetShapes=umlLifeline;" parent="8nZMs0LdViXXeDncEOVs-3" vertex="1">
          <mxGeometry x="35" y="3370" width="30" height="30" as="geometry" />
        </mxCell>
        <mxCell id="8nZMs0LdViXXeDncEOVs-5" value="&lt;font style=&quot;font-size: 18px;&quot;&gt;View Product&amp;nbsp;&lt;/font&gt;" style="html=1;verticalAlign=bottom;endArrow=block;curved=0;rounded=0;" parent="1" edge="1">
          <mxGeometry width="80" relative="1" as="geometry">
            <mxPoint x="105" y="3910" as="sourcePoint" />
            <mxPoint x="1489.5" y="3910" as="targetPoint" />
          </mxGeometry>
        </mxCell>
        <mxCell id="8nZMs0LdViXXeDncEOVs-6" value="&lt;font style=&quot;font-size: 18px;&quot;&gt;return&lt;/font&gt;" style="html=1;verticalAlign=bottom;endArrow=open;dashed=1;endSize=8;curved=0;rounded=0;" parent="1" edge="1">
          <mxGeometry relative="1" as="geometry">
            <mxPoint x="1490" y="3950" as="sourcePoint" />
            <mxPoint x="101.46153846153857" y="3950" as="targetPoint" />
          </mxGeometry>
        </mxCell>
        <mxCell id="8nZMs0LdViXXeDncEOVs-7" value="&lt;font style=&quot;font-size: 18px;&quot;&gt;alt&amp;nbsp;&lt;/font&gt;" style="shape=umlFrame;whiteSpace=wrap;html=1;pointerEvents=0;" parent="1" vertex="1">
          <mxGeometry x="50" y="3960" width="1680" height="680" as="geometry" />
        </mxCell>
        <mxCell id="8nZMs0LdViXXeDncEOVs-8" value="&lt;font style=&quot;font-size: 18px;&quot;&gt;[ if request == buy ]&amp;nbsp;&lt;/font&gt;" style="text;align=center;fontStyle=1;verticalAlign=middle;spacingLeft=3;spacingRight=3;strokeColor=none;rotatable=0;points=[[0,0.5],[1,0.5]];portConstraint=eastwest;html=1;" parent="1" vertex="1">
          <mxGeometry x="160" y="4010" width="80" height="26" as="geometry" />
        </mxCell>
        <mxCell id="8nZMs0LdViXXeDncEOVs-10" value="" style="html=1;points=[[0,0,0,0,5],[0,1,0,0,-5],[1,0,0,0,5],[1,1,0,0,-5]];perimeter=orthogonalPerimeter;outlineConnect=0;targetShapes=umlLifeline;portConstraint=eastwest;newEdgeStyle={&quot;curved&quot;:0,&quot;rounded&quot;:0};" parent="1" vertex="1">
          <mxGeometry x="95" y="4050" width="10" height="170" as="geometry" />
        </mxCell>
        <mxCell id="8nZMs0LdViXXeDncEOVs-11" value="" style="html=1;points=[[0,0,0,0,5],[0,1,0,0,-5],[1,0,0,0,5],[1,1,0,0,-5]];perimeter=orthogonalPerimeter;outlineConnect=0;targetShapes=umlLifeline;portConstraint=eastwest;newEdgeStyle={&quot;curved&quot;:0,&quot;rounded&quot;:0};" parent="1" vertex="1">
          <mxGeometry x="1485" y="4050" width="10" height="180" as="geometry" />
        </mxCell>
        <mxCell id="8nZMs0LdViXXeDncEOVs-13" value="&lt;font style=&quot;font-size: 18px;&quot;&gt;View &amp;amp; Select Customization Options And Images&amp;nbsp;&lt;/font&gt;" style="html=1;verticalAlign=bottom;endArrow=block;curved=0;rounded=0;" parent="1" edge="1">
          <mxGeometry width="80" relative="1" as="geometry">
            <mxPoint x="105" y="4050" as="sourcePoint" />
            <mxPoint x="1489.5" y="4050" as="targetPoint" />
          </mxGeometry>
        </mxCell>
        <mxCell id="8nZMs0LdViXXeDncEOVs-23" value="&lt;font style=&quot;font-size: 18px;&quot;&gt;Calculate&amp;nbsp;&lt;/font&gt;&lt;div&gt;&lt;font size=&quot;3&quot;&gt;Price&lt;/font&gt;&lt;/div&gt;" style="html=1;align=left;spacingLeft=2;endArrow=block;rounded=0;edgeStyle=orthogonalEdgeStyle;curved=0;rounded=0;" parent="1" edge="1">
          <mxGeometry relative="1" as="geometry">
            <mxPoint x="1490" y="4110" as="sourcePoint" />
            <Array as="points">
              <mxPoint x="1520" y="4140" />
            </Array>
            <mxPoint x="1495" y="4140" as="targetPoint" />
          </mxGeometry>
        </mxCell>
        <mxCell id="8nZMs0LdViXXeDncEOVs-24" value="&lt;font style=&quot;font-size: 18px;&quot;&gt;Show Calculated prices and terms &amp;amp; condition&amp;nbsp;&lt;/font&gt;" style="html=1;verticalAlign=bottom;endArrow=open;dashed=1;endSize=8;curved=0;rounded=0;" parent="1" edge="1">
          <mxGeometry relative="1" as="geometry">
            <mxPoint x="1480" y="4170" as="sourcePoint" />
            <mxPoint x="101.46153846153857" y="4170" as="targetPoint" />
          </mxGeometry>
        </mxCell>
        <mxCell id="8nZMs0LdViXXeDncEOVs-26" value="&lt;font style=&quot;font-size: 18px;&quot;&gt;accept &amp;amp; request for buy&amp;nbsp;&lt;/font&gt;" style="html=1;verticalAlign=bottom;endArrow=block;curved=0;rounded=0;" parent="1" target="8nZMs0LdViXXeDncEOVs-11" edge="1">
          <mxGeometry width="80" relative="1" as="geometry">
            <mxPoint x="105" y="4210" as="sourcePoint" />
            <mxPoint x="185" y="4210" as="targetPoint" />
          </mxGeometry>
        </mxCell>
        <mxCell id="8nZMs0LdViXXeDncEOVs-31" value="" style="html=1;points=[[0,0,0,0,5],[0,1,0,0,-5],[1,0,0,0,5],[1,1,0,0,-5]];perimeter=orthogonalPerimeter;outlineConnect=0;targetShapes=umlLifeline;portConstraint=eastwest;newEdgeStyle={&quot;curved&quot;:0,&quot;rounded&quot;:0};" parent="1" vertex="1">
          <mxGeometry x="95" y="4290" width="10" height="80" as="geometry" />
        </mxCell>
        <mxCell id="8nZMs0LdViXXeDncEOVs-32" value="" style="html=1;points=[[0,0,0,0,5],[0,1,0,0,-5],[1,0,0,0,5],[1,1,0,0,-5]];perimeter=orthogonalPerimeter;outlineConnect=0;targetShapes=umlLifeline;portConstraint=eastwest;newEdgeStyle={&quot;curved&quot;:0,&quot;rounded&quot;:0};" parent="1" vertex="1">
          <mxGeometry x="1485" y="4290" width="10" height="80" as="geometry" />
        </mxCell>
        <mxCell id="8nZMs0LdViXXeDncEOVs-34" value="&lt;font style=&quot;font-size: 18px;&quot;&gt;Process To Payment ( if approve )&amp;nbsp;&amp;nbsp;&lt;/font&gt;" style="html=1;verticalAlign=bottom;endArrow=block;curved=0;rounded=0;" parent="1" edge="1">
          <mxGeometry width="80" relative="1" as="geometry">
            <mxPoint x="100" y="4290" as="sourcePoint" />
            <mxPoint x="1489.5" y="4290" as="targetPoint" />
          </mxGeometry>
        </mxCell>
        <mxCell id="8nZMs0LdViXXeDncEOVs-35" value="&lt;font style=&quot;font-size: 18px;&quot;&gt;return&lt;/font&gt;" style="html=1;verticalAlign=bottom;endArrow=open;dashed=1;endSize=8;curved=0;rounded=0;" parent="1" edge="1">
          <mxGeometry relative="1" as="geometry">
            <mxPoint x="1485" y="4368.46" as="sourcePoint" />
            <mxPoint x="101.46153846153857" y="4368.46" as="targetPoint" />
          </mxGeometry>
        </mxCell>
        <mxCell id="8nZMs0LdViXXeDncEOVs-41" value="&lt;font style=&quot;font-size: 18px;&quot;&gt;[ else request == back ]&amp;nbsp;&lt;/font&gt;" style="text;align=center;fontStyle=1;verticalAlign=middle;spacingLeft=3;spacingRight=3;strokeColor=none;rotatable=0;points=[[0,0.5],[1,0.5]];portConstraint=eastwest;html=1;" parent="1" vertex="1">
          <mxGeometry x="170" y="4430" width="80" height="26" as="geometry" />
        </mxCell>
        <mxCell id="8nZMs0LdViXXeDncEOVs-42" value="" style="html=1;points=[[0,0,0,0,5],[0,1,0,0,-5],[1,0,0,0,5],[1,1,0,0,-5]];perimeter=orthogonalPerimeter;outlineConnect=0;targetShapes=umlLifeline;portConstraint=eastwest;newEdgeStyle={&quot;curved&quot;:0,&quot;rounded&quot;:0};" parent="1" vertex="1">
          <mxGeometry x="95" y="4480" width="10" height="40" as="geometry" />
        </mxCell>
        <mxCell id="8nZMs0LdViXXeDncEOVs-43" value="" style="html=1;points=[[0,0,0,0,5],[0,1,0,0,-5],[1,0,0,0,5],[1,1,0,0,-5]];perimeter=orthogonalPerimeter;outlineConnect=0;targetShapes=umlLifeline;portConstraint=eastwest;newEdgeStyle={&quot;curved&quot;:0,&quot;rounded&quot;:0};" parent="1" vertex="1">
          <mxGeometry x="1485" y="4480" width="10" height="40" as="geometry" />
        </mxCell>
        <mxCell id="8nZMs0LdViXXeDncEOVs-44" value="&lt;font style=&quot;font-size: 18px;&quot;&gt;Request For Back&amp;nbsp;&lt;/font&gt;" style="html=1;verticalAlign=bottom;endArrow=block;curved=0;rounded=0;" parent="1" edge="1">
          <mxGeometry x="0.1484" width="80" relative="1" as="geometry">
            <mxPoint x="105" y="4480" as="sourcePoint" />
            <mxPoint x="1489.5" y="4480" as="targetPoint" />
            <mxPoint as="offset" />
          </mxGeometry>
        </mxCell>
        <mxCell id="8nZMs0LdViXXeDncEOVs-45" value="&lt;font style=&quot;font-size: 18px;&quot;&gt;return&lt;/font&gt;" style="html=1;verticalAlign=bottom;endArrow=open;dashed=1;endSize=8;curved=0;rounded=0;" parent="1" edge="1">
          <mxGeometry relative="1" as="geometry">
            <mxPoint x="1485" y="4519.17" as="sourcePoint" />
            <mxPoint x="98.5" y="4519.17" as="targetPoint" />
          </mxGeometry>
        </mxCell>
        <mxCell id="8nZMs0LdViXXeDncEOVs-46" value="" style="html=1;points=[[0,0,0,0,5],[0,1,0,0,-5],[1,0,0,0,5],[1,1,0,0,-5]];perimeter=orthogonalPerimeter;outlineConnect=0;targetShapes=umlLifeline;portConstraint=eastwest;newEdgeStyle={&quot;curved&quot;:0,&quot;rounded&quot;:0};" parent="1" vertex="1">
          <mxGeometry x="95" y="4560" width="10" height="40" as="geometry" />
        </mxCell>
        <mxCell id="8nZMs0LdViXXeDncEOVs-49" value="&lt;font style=&quot;font-size: 18px;&quot;&gt;Payment And Notify ( if Approve )&amp;nbsp;&lt;/font&gt;" style="html=1;verticalAlign=bottom;endArrow=block;curved=0;rounded=0;" parent="1" edge="1">
          <mxGeometry width="80" relative="1" as="geometry">
            <mxPoint x="1489.5" y="4560" as="sourcePoint" />
            <mxPoint x="105.00333333333326" y="4560" as="targetPoint" />
          </mxGeometry>
        </mxCell>
        <mxCell id="8nZMs0LdViXXeDncEOVs-50" value="&lt;font style=&quot;font-size: 18px;&quot;&gt;return&lt;/font&gt;" style="html=1;verticalAlign=bottom;endArrow=open;dashed=1;endSize=8;curved=0;rounded=0;" parent="1" edge="1">
          <mxGeometry relative="1" as="geometry">
            <mxPoint x="98.5" y="4599.17" as="sourcePoint" />
            <mxPoint x="1489.5" y="4599.17" as="targetPoint" />
          </mxGeometry>
        </mxCell>
        <mxCell id="8nZMs0LdViXXeDncEOVs-51" value="" style="html=1;points=[[0,0,0,0,5],[0,1,0,0,-5],[1,0,0,0,5],[1,1,0,0,-5]];perimeter=orthogonalPerimeter;outlineConnect=0;targetShapes=umlLifeline;portConstraint=eastwest;newEdgeStyle={&quot;curved&quot;:0,&quot;rounded&quot;:0};" parent="1" vertex="1">
          <mxGeometry x="1645" y="4330" width="10" height="40" as="geometry" />
        </mxCell>
        <mxCell id="8nZMs0LdViXXeDncEOVs-52" value="&lt;font style=&quot;font-size: 18px;&quot;&gt;save&amp;nbsp;&lt;/font&gt;" style="html=1;verticalAlign=bottom;endArrow=block;curved=0;rounded=0;" parent="1" edge="1">
          <mxGeometry width="80" relative="1" as="geometry">
            <mxPoint x="1495" y="4330" as="sourcePoint" />
            <mxPoint x="1649.5000000000005" y="4330" as="targetPoint" />
          </mxGeometry>
        </mxCell>
        <mxCell id="8nZMs0LdViXXeDncEOVs-65" value="Send Request To Admin" style="html=1;align=left;spacingLeft=2;endArrow=block;rounded=0;edgeStyle=orthogonalEdgeStyle;curved=0;rounded=0;" edge="1" parent="1">
          <mxGeometry x="-0.0588" y="10" relative="1" as="geometry">
            <mxPoint x="220" y="4905" as="sourcePoint" />
            <Array as="points">
              <mxPoint x="250" y="4935" />
            </Array>
            <mxPoint x="225" y="4935" as="targetPoint" />
            <mxPoint as="offset" />
          </mxGeometry>
        </mxCell>
        <mxCell id="yZpoLFo5JD8WxAo0yh-B-1" value="&lt;font style=&quot;font-size: 18px;&quot;&gt;return&lt;/font&gt;" style="html=1;verticalAlign=bottom;endArrow=open;dashed=1;endSize=8;curved=0;rounded=0;" edge="1" parent="1">
          <mxGeometry relative="1" as="geometry">
            <mxPoint x="1649.5000000000005" y="4370" as="sourcePoint" />
            <mxPoint x="1495" y="4370" as="targetPoint" />
          </mxGeometry>
        </mxCell>
        <mxCell id="yZpoLFo5JD8WxAo0yh-B-6" value="" style="endArrow=none;dashed=1;html=1;rounded=0;exitX=0.004;exitY=0.676;exitDx=0;exitDy=0;exitPerimeter=0;" edge="1" parent="1" source="8nZMs0LdViXXeDncEOVs-7">
          <mxGeometry width="50" height="50" relative="1" as="geometry">
            <mxPoint x="700" y="4540" as="sourcePoint" />
            <mxPoint x="1730" y="4420" as="targetPoint" />
          </mxGeometry>
        </mxCell>
        <mxCell id="yZpoLFo5JD8WxAo0yh-B-10" value="" style="endArrow=none;dashed=1;html=1;rounded=0;exitX=0.002;exitY=0.659;exitDx=0;exitDy=0;exitPerimeter=0;entryX=0.998;entryY=0.677;entryDx=0;entryDy=0;entryPerimeter=0;" edge="1" parent="1" source="XLQYAiqoUqziNo8lfi08-129" target="XLQYAiqoUqziNo8lfi08-129">
          <mxGeometry width="50" height="50" relative="1" as="geometry">
            <mxPoint x="830" y="3120" as="sourcePoint" />
            <mxPoint x="880" y="3070" as="targetPoint" />
          </mxGeometry>
        </mxCell>
        <mxCell id="yZpoLFo5JD8WxAo0yh-B-12" value="" style="html=1;verticalAlign=bottom;endArrow=block;curved=0;rounded=0;" edge="1" parent="1" target="yZpoLFo5JD8WxAo0yh-B-11">
          <mxGeometry width="80" relative="1" as="geometry">
            <mxPoint x="1005.61" y="2920" as="sourcePoint" />
            <mxPoint x="98.5" y="2920" as="targetPoint" />
          </mxGeometry>
        </mxCell>
        <mxCell id="yZpoLFo5JD8WxAo0yh-B-11" value="" style="html=1;points=[[0,0,0,0,5],[0,1,0,0,-5],[1,0,0,0,5],[1,1,0,0,-5]];perimeter=orthogonalPerimeter;outlineConnect=0;targetShapes=umlLifeline;portConstraint=eastwest;newEdgeStyle={&quot;curved&quot;:0,&quot;rounded&quot;:0};" vertex="1" parent="1">
          <mxGeometry x="1005" y="2920" width="10" height="40" as="geometry" />
        </mxCell>
        <mxCell id="yZpoLFo5JD8WxAo0yh-B-13" value="" style="endArrow=none;dashed=1;html=1;rounded=0;exitX=-0.003;exitY=0.052;exitDx=0;exitDy=0;exitPerimeter=0;entryX=0.996;entryY=0.05;entryDx=0;entryDy=0;entryPerimeter=0;" edge="1" parent="1" source="XLQYAiqoUqziNo8lfi08-75" target="XLQYAiqoUqziNo8lfi08-75">
          <mxGeometry width="50" height="50" relative="1" as="geometry">
            <mxPoint x="1070" y="2210" as="sourcePoint" />
            <mxPoint x="1120" y="2160" as="targetPoint" />
          </mxGeometry>
        </mxCell>
        <mxCell id="8nZMs0LdViXXeDncEOVs-69" value="Redirect To Seller&amp;nbsp;&lt;div&gt;Website ( if approve )&amp;nbsp;&lt;/div&gt;" style="html=1;verticalAlign=bottom;endArrow=block;curved=0;rounded=0;" edge="1" parent="1" target="XLQYAiqoUqziNo8lfi08-73">
          <mxGeometry width="80" relative="1" as="geometry">
            <mxPoint x="210" y="4970" as="sourcePoint" />
            <mxPoint x="640" y="4970" as="targetPoint" />
          </mxGeometry>
        </mxCell>
      </root>
    </mxGraphModel>
  </diagram>
</mxfile>
